<svg xmlns="http://www.w3.org/2000/svg" style="background: transparent; background-color: transparent; color-scheme: light dark;" xmlns:xlink="http://www.w3.org/1999/xlink" version="1.1" width="482px" height="513px" viewBox="0 0 482 513"><defs/><g><g data-cell-id="0"><g data-cell-id="1"><g data-cell-id="2"><g><path d="M 240 13 L 240 499" fill="none" stroke="#cccccc" stroke-width="3" stroke-miterlimit="10" pointer-events="stroke" style="stroke: light-dark(rgb(204, 204, 204), rgb(62, 62, 62));"/></g></g><g data-cell-id="3"><g><ellipse cx="240" cy="7" rx="6.000000000000001" ry="6.000000000000001" fill="none" stroke="#333333" stroke-width="2" pointer-events="all" style="stroke: light-dark(rgb(51, 51, 51), rgb(193, 193, 193));"/></g></g><g data-cell-id="4"><g><ellipse cx="240" cy="505" rx="6.000000000000001" ry="6.000000000000001" fill="none" stroke="#333333" stroke-width="2" pointer-events="all" style="stroke: light-dark(rgb(51, 51, 51), rgb(193, 193, 193));"/></g></g><g data-cell-id="5"><g transform="translate(0.5,0.5)"><path d="M 121 2.5 C 120.69 0.13 119.18 -1.91 117 -2.9 C 103.14 -5.73 93.14 -17.85 93 -32 C 93 -48.57 106.43 -62 123 -62 C 130.96 -62 138.59 -58.84 144.21 -53.21 C 149.84 -47.59 153 -39.96 153 -32 C 152.86 -17.85 142.86 -5.73 129 -2.9 C 126.82 -1.91 125.31 0.13 125 2.5 L 125 172 C 127.52 172.89 129.15 175.33 129 178 C 129 181.31 126.31 184 123 184 C 119.69 184 117 181.31 117 178 C 116.85 175.33 118.48 172.89 121 172 Z M 123 -56 C 111.77 -56.36 101.8 -48.88 99 -38 C 97.11 -30.68 98.77 -22.9 103.49 -17 C 108.22 -11.09 115.44 -7.76 123 -8 C 130.56 -7.76 137.78 -11.09 142.51 -17 C 147.23 -22.9 148.89 -30.68 147 -38 C 144.2 -48.88 134.23 -56.36 123 -56 Z M 123 173.5 C 120.51 173.5 118.5 175.51 118.5 178 C 118.5 180.49 120.51 182.5 123 182.5 C 125.49 182.5 127.5 180.49 127.5 178 C 127.5 175.51 125.49 173.5 123 173.5 Z" fill="#10739e" stroke="none" transform="rotate(270,123,61)" pointer-events="all" style="fill: light-dark(rgb(16, 115, 158), rgb(84, 169, 206));"/><path d="M 123 -56 C 111.77 -56.36 101.8 -48.88 99 -38 C 97.11 -30.68 98.77 -22.9 103.49 -17 C 108.22 -11.09 115.44 -7.76 123 -8 C 130.56 -7.76 137.78 -11.09 142.51 -17 C 147.23 -22.9 148.89 -30.68 147 -38 C 144.2 -48.88 134.23 -56.36 123 -56 Z M 123 173.5 C 120.51 173.5 118.5 175.51 118.5 178 C 118.5 180.49 120.51 182.5 123 182.5 C 125.49 182.5 127.5 180.49 127.5 178 C 127.5 175.51 125.49 173.5 123 173.5 Z" fill="#ffffff" stroke="none" transform="rotate(270,123,61)" pointer-events="all" style="fill: light-dark(#ffffff, var(--ge-dark-color, #121212));"/></g></g><g data-cell-id="6"><g transform="translate(0.5,0.5)"><path d="M 355 72.5 C 354.69 70.13 353.18 68.09 351 67.1 C 337.14 64.27 327.14 52.15 327 38 C 327 21.43 340.43 8 357 8 C 364.96 8 372.59 11.16 378.21 16.79 C 383.84 22.41 387 30.04 387 38 C 386.86 52.15 376.86 64.27 363 67.1 C 360.82 68.09 359.31 70.13 359 72.5 L 359 242 C 361.52 242.89 363.15 245.33 363 248 C 363 251.31 360.31 254 357 254 C 353.69 254 351 251.31 351 248 C 350.85 245.33 352.48 242.89 355 242 Z M 357 14 C 345.77 13.64 335.8 21.12 333 32 C 331.11 39.32 332.77 47.1 337.49 53 C 342.22 58.91 349.44 62.24 357 62 C 364.56 62.24 371.78 58.91 376.51 53 C 381.23 47.1 382.89 39.32 381 32 C 378.2 21.12 368.23 13.64 357 14 Z M 357 243.5 C 354.51 243.5 352.5 245.51 352.5 248 C 352.5 250.49 354.51 252.5 357 252.5 C 359.49 252.5 361.5 250.49 361.5 248 C 361.5 245.51 359.49 243.5 357 243.5 Z" fill="#f2931e" stroke="none" transform="translate(0,131)scale(1,-1)translate(0,-131)rotate(-270,357,131)" pointer-events="all" style="fill: light-dark(rgb(242, 147, 30), rgb(173, 91, 0));"/><path d="M 357 14 C 345.77 13.64 335.8 21.12 333 32 C 331.11 39.32 332.77 47.1 337.49 53 C 342.22 58.91 349.44 62.24 357 62 C 364.56 62.24 371.78 58.91 376.51 53 C 381.23 47.1 382.89 39.32 381 32 C 378.2 21.12 368.23 13.64 357 14 Z M 357 243.5 C 354.51 243.5 352.5 245.51 352.5 248 C 352.5 250.49 354.51 252.5 357 252.5 C 359.49 252.5 361.5 250.49 361.5 248 C 361.5 245.51 359.49 243.5 357 243.5 Z" fill="#ffffff" stroke="none" transform="translate(0,131)scale(1,-1)translate(0,-131)rotate(-270,357,131)" pointer-events="all" style="fill: light-dark(#ffffff, var(--ge-dark-color, #121212));"/></g></g><g data-cell-id="7"><g transform="translate(0.5,0.5)"><path d="M 121 142.5 C 120.69 140.13 119.18 138.09 117 137.1 C 103.14 134.27 93.14 122.15 93 108 C 93 91.43 106.43 78 123 78 C 130.96 78 138.59 81.16 144.21 86.79 C 149.84 92.41 153 100.04 153 108 C 152.86 122.15 142.86 134.27 129 137.1 C 126.82 138.09 125.31 140.13 125 142.5 L 125 312 C 127.52 312.89 129.15 315.33 129 318 C 129 321.31 126.31 324 123 324 C 119.69 324 117 321.31 117 318 C 116.85 315.33 118.48 312.89 121 312 Z M 123 84 C 111.77 83.64 101.8 91.12 99 102 C 97.11 109.32 98.77 117.1 103.49 123 C 108.22 128.91 115.44 132.24 123 132 C 130.56 132.24 137.78 128.91 142.51 123 C 147.23 117.1 148.89 109.32 147 102 C 144.2 91.12 134.23 83.64 123 84 Z M 123 313.5 C 120.51 313.5 118.5 315.51 118.5 318 C 118.5 320.49 120.51 322.5 123 322.5 C 125.49 322.5 127.5 320.49 127.5 318 C 127.5 315.51 125.49 313.5 123 313.5 Z" fill="#ae4132" stroke="none" transform="rotate(270,123,201)" pointer-events="all" style="fill: light-dark(rgb(174, 65, 50), rgb(236, 143, 130));"/><path d="M 123 84 C 111.77 83.64 101.8 91.12 99 102 C 97.11 109.32 98.77 117.1 103.49 123 C 108.22 128.91 115.44 132.24 123 132 C 130.56 132.24 137.78 128.91 142.51 123 C 147.23 117.1 148.89 109.32 147 102 C 144.2 91.12 134.23 83.64 123 84 Z M 123 313.5 C 120.51 313.5 118.5 315.51 118.5 318 C 118.5 320.49 120.51 322.5 123 322.5 C 125.49 322.5 127.5 320.49 127.5 318 C 127.5 315.51 125.49 313.5 123 313.5 Z" fill="#ffffff" stroke="none" transform="rotate(270,123,201)" pointer-events="all" style="fill: light-dark(#ffffff, var(--ge-dark-color, #121212));"/></g></g><g data-cell-id="8"><g transform="translate(0.5,0.5)"><path d="M 355 212.5 C 354.69 210.13 353.18 208.09 351 207.1 C 337.14 204.27 327.14 192.15 327 178 C 327 161.43 340.43 148 357 148 C 364.96 148 372.59 151.16 378.21 156.79 C 383.84 162.41 387 170.04 387 178 C 386.86 192.15 376.86 204.27 363 207.1 C 360.82 208.09 359.31 210.13 359 212.5 L 359 382 C 361.52 382.89 363.15 385.33 363 388 C 363 391.31 360.31 394 357 394 C 353.69 394 351 391.31 351 388 C 350.85 385.33 352.48 382.89 355 382 Z M 357 154 C 345.77 153.64 335.8 161.12 333 172 C 331.11 179.32 332.77 187.1 337.49 193 C 342.22 198.91 349.44 202.24 357 202 C 364.56 202.24 371.78 198.91 376.51 193 C 381.23 187.1 382.89 179.32 381 172 C 378.2 161.12 368.23 153.64 357 154 Z M 357 383.5 C 354.51 383.5 352.5 385.51 352.5 388 C 352.5 390.49 354.51 392.5 357 392.5 C 359.49 392.5 361.5 390.49 361.5 388 C 361.5 385.51 359.49 383.5 357 383.5 Z" fill="#23445d" stroke="none" transform="translate(0,271)scale(1,-1)translate(0,-271)rotate(-270,357,271)" pointer-events="all" style="fill: light-dark(rgb(35, 68, 93), rgb(160, 188, 210));"/><path d="M 357 154 C 345.77 153.64 335.8 161.12 333 172 C 331.11 179.32 332.77 187.1 337.49 193 C 342.22 198.91 349.44 202.24 357 202 C 364.56 202.24 371.78 198.91 376.51 193 C 381.23 187.1 382.89 179.32 381 172 C 378.2 161.12 368.23 153.64 357 154 Z M 357 383.5 C 354.51 383.5 352.5 385.51 352.5 388 C 352.5 390.49 354.51 392.5 357 392.5 C 359.49 392.5 361.5 390.49 361.5 388 C 361.5 385.51 359.49 383.5 357 383.5 Z" fill="#ffffff" stroke="none" transform="translate(0,271)scale(1,-1)translate(0,-271)rotate(-270,357,271)" pointer-events="all" style="fill: light-dark(#ffffff, var(--ge-dark-color, #121212));"/></g></g><g data-cell-id="9"><g transform="translate(0.5,0.5)"><path d="M 121 282.5 C 120.69 280.13 119.18 278.09 117 277.1 C 103.14 274.27 93.14 262.15 93 248 C 93 231.43 106.43 218 123 218 C 130.96 218 138.59 221.16 144.21 226.79 C 149.84 232.41 153 240.04 153 248 C 152.86 262.15 142.86 274.27 129 277.1 C 126.82 278.09 125.31 280.13 125 282.5 L 125 452 C 127.52 452.89 129.15 455.33 129 458 C 129 461.31 126.31 464 123 464 C 119.69 464 117 461.31 117 458 C 116.85 455.33 118.48 452.89 121 452 Z M 123 224 C 111.77 223.64 101.8 231.12 99 242 C 97.11 249.32 98.77 257.1 103.49 263 C 108.22 268.91 115.44 272.24 123 272 C 130.56 272.24 137.78 268.91 142.51 263 C 147.23 257.1 148.89 249.32 147 242 C 144.2 231.12 134.23 223.64 123 224 Z M 123 453.5 C 120.51 453.5 118.5 455.51 118.5 458 C 118.5 460.49 120.51 462.5 123 462.5 C 125.49 462.5 127.5 460.49 127.5 458 C 127.5 455.51 125.49 453.5 123 453.5 Z" fill="#12aab5" stroke="none" transform="rotate(270,123,341)" pointer-events="all" style="fill: light-dark(rgb(18, 170, 181), rgb(14, 145, 155));"/><path d="M 123 224 C 111.77 223.64 101.8 231.12 99 242 C 97.11 249.32 98.77 257.1 103.49 263 C 108.22 268.91 115.44 272.24 123 272 C 130.56 272.24 137.78 268.91 142.51 263 C 147.23 257.1 148.89 249.32 147 242 C 144.2 231.12 134.23 223.64 123 224 Z M 123 453.5 C 120.51 453.5 118.5 455.51 118.5 458 C 118.5 460.49 120.51 462.5 123 462.5 C 125.49 462.5 127.5 460.49 127.5 458 C 127.5 455.51 125.49 453.5 123 453.5 Z" fill="#ffffff" stroke="none" transform="rotate(270,123,341)" pointer-events="all" style="fill: light-dark(#ffffff, var(--ge-dark-color, #121212));"/></g></g><g data-cell-id="10"><g transform="translate(0.5,0.5)"><path d="M 355 352.5 C 354.69 350.13 353.18 348.09 351 347.1 C 337.14 344.27 327.14 332.15 327 318 C 327 301.43 340.43 288 357 288 C 364.96 288 372.59 291.16 378.21 296.79 C 383.84 302.41 387 310.04 387 318 C 386.86 332.15 376.86 344.27 363 347.1 C 360.82 348.09 359.31 350.13 359 352.5 L 359 522 C 361.52 522.89 363.15 525.33 363 528 C 363 531.31 360.31 534 357 534 C 353.69 534 351 531.31 351 528 C 350.85 525.33 352.48 522.89 355 522 Z M 357 294 C 345.77 293.64 335.8 301.12 333 312 C 331.11 319.32 332.77 327.1 337.49 333 C 342.22 338.91 349.44 342.24 357 342 C 364.56 342.24 371.78 338.91 376.51 333 C 381.23 327.1 382.89 319.32 381 312 C 378.2 301.12 368.23 293.64 357 294 Z M 357 523.5 C 354.51 523.5 352.5 525.51 352.5 528 C 352.5 530.49 354.51 532.5 357 532.5 C 359.49 532.5 361.5 530.49 361.5 528 C 361.5 525.51 359.49 523.5 357 523.5 Z" fill="#56517e" stroke="none" transform="translate(0,411)scale(1,-1)translate(0,-411)rotate(-270,357,411)" pointer-events="all" style="fill: light-dark(rgb(86, 81, 126), rgb(164, 160, 198));"/><path d="M 357 294 C 345.77 293.64 335.8 301.12 333 312 C 331.11 319.32 332.77 327.1 337.49 333 C 342.22 338.91 349.44 342.24 357 342 C 364.56 342.24 371.78 338.91 376.51 333 C 381.23 327.1 382.89 319.32 381 312 C 378.2 301.12 368.23 293.64 357 294 Z M 357 523.5 C 354.51 523.5 352.5 525.51 352.5 528 C 352.5 530.49 354.51 532.5 357 532.5 C 359.49 532.5 361.5 530.49 361.5 528 C 361.5 525.51 359.49 523.5 357 523.5 Z" fill="#ffffff" stroke="none" transform="translate(0,411)scale(1,-1)translate(0,-411)rotate(-270,357,411)" pointer-events="all" style="fill: light-dark(#ffffff, var(--ge-dark-color, #121212));"/></g></g><g data-cell-id="11"><g transform="translate(0.5,0.5)"><rect x="70" y="21" width="160" height="30" rx="4.5" ry="4.5" fill="#10739e" stroke="none" pointer-events="all" style="fill: light-dark(rgb(16, 115, 158), rgb(84, 169, 206));"/></g><g><g><switch><foreignObject style="overflow: visible; text-align: left;" pointer-events="none" width="100%" height="100%" requiredFeatures="http://www.w3.org/TR/SVG11/feature#Extensibility"><div xmlns="http://www.w3.org/1999/xhtml" style="display: flex; align-items: unsafe center; justify-content: unsafe center; width: 158px; height: 1px; padding-top: 36px; margin-left: 71px;"><div style="box-sizing: border-box; font-size: 0; text-align: center; color: #FFFFFF; "><div style="display: inline-block; font-size: 14px; font-family: Helvetica; color: light-dark(#FFFFFF, #121212); line-height: 1.2; pointer-events: all; font-weight: bold; white-space: normal; word-wrap: normal; ">Label</div></div></div></foreignObject><text x="150" y="40" fill="#FFFFFF" font-family="Helvetica" font-size="14px" text-anchor="middle" font-weight="bold">Label</text></switch></g></g></g><g data-cell-id="12"><g transform="translate(0.5,0.5)"><rect x="250" y="86" width="160" height="30" rx="4.5" ry="4.5" fill="#f2931e" stroke="none" pointer-events="all" style="fill: light-dark(rgb(242, 147, 30), rgb(173, 91, 0));"/></g><g><g><switch><foreignObject style="overflow: visible; text-align: left;" pointer-events="none" width="100%" height="100%" requiredFeatures="http://www.w3.org/TR/SVG11/feature#Extensibility"><div xmlns="http://www.w3.org/1999/xhtml" style="display: flex; align-items: unsafe center; justify-content: unsafe center; width: 158px; height: 1px; padding-top: 101px; margin-left: 251px;"><div style="box-sizing: border-box; font-size: 0; text-align: center; color: #FFFFFF; "><div style="display: inline-block; font-size: 14px; font-family: Helvetica; color: light-dark(#FFFFFF, #121212); line-height: 1.2; pointer-events: all; font-weight: bold; white-space: normal; word-wrap: normal; ">Label</div></div></div></foreignObject><text x="330" y="105" fill="#FFFFFF" font-family="Helvetica" font-size="14px" text-anchor="middle" font-weight="bold">Label</text></switch></g></g></g><g data-cell-id="13"><g transform="translate(0.5,0.5)"><rect x="70" y="161" width="160" height="30" rx="4.5" ry="4.5" fill="#ae4132" stroke="none" pointer-events="all" style="fill: light-dark(rgb(174, 65, 50), rgb(236, 143, 130));"/></g><g><g><switch><foreignObject style="overflow: visible; text-align: left;" pointer-events="none" width="100%" height="100%" requiredFeatures="http://www.w3.org/TR/SVG11/feature#Extensibility"><div xmlns="http://www.w3.org/1999/xhtml" style="display: flex; align-items: unsafe center; justify-content: unsafe center; width: 158px; height: 1px; padding-top: 176px; margin-left: 71px;"><div style="box-sizing: border-box; font-size: 0; text-align: center; color: #FFFFFF; "><div style="display: inline-block; font-size: 14px; font-family: Helvetica; color: light-dark(#FFFFFF, #121212); line-height: 1.2; pointer-events: all; font-weight: bold; white-space: normal; word-wrap: normal; ">Label</div></div></div></foreignObject><text x="150" y="180" fill="#FFFFFF" font-family="Helvetica" font-size="14px" text-anchor="middle" font-weight="bold">Label</text></switch></g></g></g><g data-cell-id="14"><g transform="translate(0.5,0.5)"><rect x="250" y="226" width="160" height="30" rx="4.5" ry="4.5" fill="#23445d" stroke="none" pointer-events="all" style="fill: light-dark(rgb(35, 68, 93), rgb(160, 188, 210));"/></g><g><g><switch><foreignObject style="overflow: visible; text-align: left;" pointer-events="none" width="100%" height="100%" requiredFeatures="http://www.w3.org/TR/SVG11/feature#Extensibility"><div xmlns="http://www.w3.org/1999/xhtml" style="display: flex; align-items: unsafe center; justify-content: unsafe center; width: 158px; height: 1px; padding-top: 241px; margin-left: 251px;"><div style="box-sizing: border-box; font-size: 0; text-align: center; color: #FFFFFF; "><div style="display: inline-block; font-size: 14px; font-family: Helvetica; color: light-dark(#FFFFFF, #121212); line-height: 1.2; pointer-events: all; font-weight: bold; white-space: normal; word-wrap: normal; ">Label</div></div></div></foreignObject><text x="330" y="245" fill="#FFFFFF" font-family="Helvetica" font-size="14px" text-anchor="middle" font-weight="bold">Label</text></switch></g></g></g><g data-cell-id="15"><g transform="translate(0.5,0.5)"><rect x="70" y="301" width="160" height="30" rx="4.5" ry="4.5" fill="#12aab5" stroke="none" pointer-events="all" style="fill: light-dark(rgb(18, 170, 181), rgb(14, 145, 155));"/></g><g><g><switch><foreignObject style="overflow: visible; text-align: left;" pointer-events="none" width="100%" height="100%" requiredFeatures="http://www.w3.org/TR/SVG11/feature#Extensibility"><div xmlns="http://www.w3.org/1999/xhtml" style="display: flex; align-items: unsafe center; justify-content: unsafe center; width: 158px; height: 1px; padding-top: 316px; margin-left: 71px;"><div style="box-sizing: border-box; font-size: 0; text-align: center; color: #FFFFFF; "><div style="display: inline-block; font-size: 14px; font-family: Helvetica; color: light-dark(#FFFFFF, #121212); line-height: 1.2; pointer-events: all; font-weight: bold; white-space: normal; word-wrap: normal; ">Label</div></div></div></foreignObject><text x="150" y="320" fill="#FFFFFF" font-family="Helvetica" font-size="14px" text-anchor="middle" font-weight="bold">Label</text></switch></g></g></g><g data-cell-id="16"><g transform="translate(0.5,0.5)"><rect x="250" y="366" width="160" height="30" rx="4.5" ry="4.5" fill="#56517e" stroke="none" pointer-events="all" style="fill: light-dark(rgb(86, 81, 126), rgb(164, 160, 198));"/></g><g><g><switch><foreignObject style="overflow: visible; text-align: left;" pointer-events="none" width="100%" height="100%" requiredFeatures="http://www.w3.org/TR/SVG11/feature#Extensibility"><div xmlns="http://www.w3.org/1999/xhtml" style="display: flex; align-items: unsafe center; justify-content: unsafe center; width: 158px; height: 1px; padding-top: 381px; margin-left: 251px;"><div style="box-sizing: border-box; font-size: 0; text-align: center; color: #FFFFFF; "><div style="display: inline-block; font-size: 14px; font-family: Helvetica; color: light-dark(#FFFFFF, #121212); line-height: 1.2; pointer-events: all; font-weight: bold; white-space: normal; word-wrap: normal; ">Label</div></div></div></foreignObject><text x="330" y="385" fill="#FFFFFF" font-family="Helvetica" font-size="14px" text-anchor="middle" font-weight="bold">Label</text></switch></g></g></g><g data-cell-id="17"><g transform="translate(0.5,0.5)"><rect x="70" y="71" width="160" height="70" rx="8.4" ry="8.4" fill="#eeeeee" stroke="none" pointer-events="all" style="fill: light-dark(rgb(238, 238, 238), rgb(32, 32, 32));"/></g><g><g><switch><foreignObject style="overflow: visible; text-align: left;" pointer-events="none" width="100%" height="100%" requiredFeatures="http://www.w3.org/TR/SVG11/feature#Extensibility"><div xmlns="http://www.w3.org/1999/xhtml" style="display: flex; align-items: unsafe flex-start; justify-content: unsafe center; width: 158px; height: 1px; padding-top: 78px; margin-left: 71px;"><div style="box-sizing: border-box; font-size: 0; text-align: center; color: #000000; "><div style="display: inline-block; font-size: 12px; font-family: Helvetica; color: light-dark(#000000, #ffffff); line-height: 1.2; pointer-events: all; white-space: normal; word-wrap: normal; "><font style="font-size: 10px"><font style="font-size: 12px; color: light-dark(rgb(16, 115, 158), rgb(84, 169, 206));" color="#10739E"><b>Label</b></font><br /><br /><font size="1">Lorem ipsum dolor sit amet, consectetur adipisicing elit</font></font></div></div></div></foreignObject><text x="150" y="90" fill="light-dark(#000000, #ffffff)" font-family="Helvetica" font-size="12px" text-anchor="middle">Label...</text></switch></g></g></g><g data-cell-id="18"><g transform="translate(0.5,0.5)"><rect x="250" y="141" width="160" height="70" rx="8.4" ry="8.4" fill="#eeeeee" stroke="none" pointer-events="all" style="fill: light-dark(rgb(238, 238, 238), rgb(32, 32, 32));"/></g><g><g><switch><foreignObject style="overflow: visible; text-align: left;" pointer-events="none" width="100%" height="100%" requiredFeatures="http://www.w3.org/TR/SVG11/feature#Extensibility"><div xmlns="http://www.w3.org/1999/xhtml" style="display: flex; align-items: unsafe flex-start; justify-content: unsafe center; width: 158px; height: 1px; padding-top: 148px; margin-left: 251px;"><div style="box-sizing: border-box; font-size: 0; text-align: center; color: #000000; "><div style="display: inline-block; font-size: 12px; font-family: Helvetica; color: light-dark(#000000, #ffffff); line-height: 1.2; pointer-events: all; white-space: normal; word-wrap: normal; "><font style="font-size: 10px"><font style="font-size: 12px; color: light-dark(rgb(242, 147, 30), rgb(173, 91, 0));" color="#F2931E"><b>Label</b></font><br /><br /><font size="1">Lorem ipsum dolor sit amet, consectetur adipisicing elit</font></font></div></div></div></foreignObject><text x="330" y="160" fill="light-dark(#000000, #ffffff)" font-family="Helvetica" font-size="12px" text-anchor="middle">Label...</text></switch></g></g></g><g data-cell-id="19"><g transform="translate(0.5,0.5)"><rect x="70" y="211" width="160" height="70" rx="8.4" ry="8.4" fill="#eeeeee" stroke="none" pointer-events="all" style="fill: light-dark(rgb(238, 238, 238), rgb(32, 32, 32));"/></g><g><g><switch><foreignObject style="overflow: visible; text-align: left;" pointer-events="none" width="100%" height="100%" requiredFeatures="http://www.w3.org/TR/SVG11/feature#Extensibility"><div xmlns="http://www.w3.org/1999/xhtml" style="display: flex; align-items: unsafe flex-start; justify-content: unsafe center; width: 158px; height: 1px; padding-top: 218px; margin-left: 71px;"><div style="box-sizing: border-box; font-size: 0; text-align: center; color: #000000; "><div style="display: inline-block; font-size: 12px; font-family: Helvetica; color: light-dark(#000000, #ffffff); line-height: 1.2; pointer-events: all; white-space: normal; word-wrap: normal; "><font style="font-size: 10px"><font style="font-size: 12px; color: light-dark(rgb(174, 65, 50), rgb(236, 143, 130));" color="#AE4132"><b>Label</b></font><br /><br /><font size="1">Lorem ipsum dolor sit amet, consectetur adipisicing elit</font></font></div></div></div></foreignObject><text x="150" y="230" fill="light-dark(#000000, #ffffff)" font-family="Helvetica" font-size="12px" text-anchor="middle">Label...</text></switch></g></g></g><g data-cell-id="20"><g transform="translate(0.5,0.5)"><rect x="250" y="281" width="160" height="70" rx="8.4" ry="8.4" fill="#eeeeee" stroke="none" pointer-events="all" style="fill: light-dark(rgb(238, 238, 238), rgb(32, 32, 32));"/></g><g><g><switch><foreignObject style="overflow: visible; text-align: left;" pointer-events="none" width="100%" height="100%" requiredFeatures="http://www.w3.org/TR/SVG11/feature#Extensibility"><div xmlns="http://www.w3.org/1999/xhtml" style="display: flex; align-items: unsafe flex-start; justify-content: unsafe center; width: 158px; height: 1px; padding-top: 288px; margin-left: 251px;"><div style="box-sizing: border-box; font-size: 0; text-align: center; color: #000000; "><div style="display: inline-block; font-size: 12px; font-family: Helvetica; color: light-dark(#000000, #ffffff); line-height: 1.2; pointer-events: all; white-space: normal; word-wrap: normal; "><font style="font-size: 10px"><font style="font-size: 12px; color: light-dark(rgb(35, 68, 93), rgb(160, 188, 210));" color="#23445D"><b>Label</b></font><br /><br /><font size="1">Lorem ipsum dolor sit amet, consectetur adipisicing elit</font></font></div></div></div></foreignObject><text x="330" y="300" fill="light-dark(#000000, #ffffff)" font-family="Helvetica" font-size="12px" text-anchor="middle">Label...</text></switch></g></g></g><g data-cell-id="21"><g transform="translate(0.5,0.5)"><rect x="70" y="351" width="160" height="70" rx="8.4" ry="8.4" fill="#eeeeee" stroke="none" pointer-events="all" style="fill: light-dark(rgb(238, 238, 238), rgb(32, 32, 32));"/></g><g><g><switch><foreignObject style="overflow: visible; text-align: left;" pointer-events="none" width="100%" height="100%" requiredFeatures="http://www.w3.org/TR/SVG11/feature#Extensibility"><div xmlns="http://www.w3.org/1999/xhtml" style="display: flex; align-items: unsafe flex-start; justify-content: unsafe center; width: 158px; height: 1px; padding-top: 358px; margin-left: 71px;"><div style="box-sizing: border-box; font-size: 0; text-align: center; color: #000000; "><div style="display: inline-block; font-size: 12px; font-family: Helvetica; color: light-dark(#000000, #ffffff); line-height: 1.2; pointer-events: all; white-space: normal; word-wrap: normal; "><font style="font-size: 10px"><font style="font-size: 12px; color: light-dark(rgb(18, 170, 181), rgb(14, 145, 155));" color="#12AAB5"><b>Label</b></font><br /><br /><font size="1">Lorem ipsum dolor sit amet, consectetur adipisicing elit</font></font></div></div></div></foreignObject><text x="150" y="370" fill="light-dark(#000000, #ffffff)" font-family="Helvetica" font-size="12px" text-anchor="middle">Label...</text></switch></g></g></g><g data-cell-id="22"><g transform="translate(0.5,0.5)"><rect x="250" y="421" width="160" height="70" rx="8.4" ry="8.4" fill="#eeeeee" stroke="none" pointer-events="all" style="fill: light-dark(rgb(238, 238, 238), rgb(32, 32, 32));"/></g><g><g><switch><foreignObject style="overflow: visible; text-align: left;" pointer-events="none" width="100%" height="100%" requiredFeatures="http://www.w3.org/TR/SVG11/feature#Extensibility"><div xmlns="http://www.w3.org/1999/xhtml" style="display: flex; align-items: unsafe flex-start; justify-content: unsafe center; width: 158px; height: 1px; padding-top: 428px; margin-left: 251px;"><div style="box-sizing: border-box; font-size: 0; text-align: center; color: #000000; "><div style="display: inline-block; font-size: 12px; font-family: Helvetica; color: light-dark(#000000, #ffffff); line-height: 1.2; pointer-events: all; white-space: normal; word-wrap: normal; "><font style="font-size: 10px"><font style="font-size: 12px; color: light-dark(rgb(86, 81, 126), rgb(164, 160, 198));" color="#56517E"><b>Label</b></font><br /><br /><font size="1">Lorem ipsum dolor sit amet, consectetur adipisicing elit</font></font></div></div></div></foreignObject><text x="330" y="440" fill="light-dark(#000000, #ffffff)" font-family="Helvetica" font-size="12px" text-anchor="middle">Label...</text></switch></g></g></g></g></g></g><switch><g requiredFeatures="http://www.w3.org/TR/SVG11/feature#Extensibility"/><a transform="translate(0,-5)" xlink:href="https://www.drawio.com/doc/faq/svg-export-text-problems" target="_blank"><text text-anchor="middle" font-size="10px" x="50%" y="100%">Text is not SVG - cannot display</text></a></switch></svg>